<svg width="1000" height="500" fill="none" xmlns="http://www.w3.org/2000/svg"><path fill="#000" d="M0 0h1000v500H0z"/><g filter="url(#a)"><path fill-rule="evenodd" clip-rule="evenodd" d="m657.7 174.6-81.2-74.5-11.4 12.4 67.7 62.1H366l67.7-62.1-11.4-12.5-81.2 74.6h-.1v49.2c0 22.2 21.4 40.3 47.6 40.3h50.1c26.3 0 47.7-18.1 47.7-40.3v-32.3h26v32.3c0 22.2 21.3 40.3 47.6 40.3h50c26.3 0 47.7-18.1 47.7-40.3v-49.2Zm-307.8 36 7.4-27.4 27.3 7.4-7.3 27.3-27.4-7.3Zm22.3-13-7.8-2-2 7.8 7.7 2 2-7.7Zm244.4-14.4-7.3 27.4 27.3 7.3 7.3-27.3-27.3-7.4Zm7.2 12.4 7.7 2-2 7.8-7.8-2 2-7.8Z" fill="url(#b)"/></g><g filter="url(#c)"><path d="M368.4 300.4c2.2 0 4 .8 5.5 2.3a7.5 7.5 0 0 1 2.3 5.4v27h-27.5c-2.1 0-4-.8-5.4-2.4a7.5 7.5 0 0 1-2.3-5.4v-12.8h28.7V308c0-.3 0-.6-.3-.9-.3-.2-.6-.4-1-.4H341v-6.4h27.4Zm1.3 28.2v-7.7h-22.3v6.4c0 .4.2.6.4.9.3.3.6.4 1 .4h21Zm62.2-28.2h6.8l-13 34.6h-5.2l-11.7-25.7-11 25.7h-5.2L379 300.4h6.8l9.4 23 10-23h7.3l10.6 23 8.8-23Zm36.3 0c2.2 0 4 .8 5.5 2.3a7.5 7.5 0 0 1 2.3 5.4V321h-28.8v6.4c0 .4.1.6.4.9.3.3.5.4 1 .4H476v6.4h-27.5c-2.1 0-4-.7-5.4-2.3a7.5 7.5 0 0 1-2.3-5.4V308c0-2.1.7-4 2.3-5.4a7.5 7.5 0 0 1 5.4-2.3h19.7Zm-21 14h22.3v-6.3c0-.3 0-.6-.3-.9-.3-.2-.6-.4-1-.4h-19.7c-.4 0-.6.2-.9.4-.3.3-.4.6-.4 1v6.3Zm69.9-6.2v1.3h-6.5v-1.3c0-.4 0-.6-.4-1-.2-.2-.5-.3-.9-.3h-19.7c-.4 0-.6.1-.9.4-.3.3-.4.5-.4.9v5c0 .4.1.7.4 1 .3.2.5.3 1 .3h19.6c2.2 0 4 .8 5.5 2.3a7.5 7.5 0 0 1 2.3 5.5v5c0 2.2-.8 4-2.3 5.5a7.5 7.5 0 0 1-5.5 2.3h-19.7c-2.1 0-4-.8-5.4-2.3a7.5 7.5 0 0 1-2.3-5.5V326h6.4v1.3c0 .4.1.7.4 1 .3.2.5.3 1 .3h19.6c.4 0 .7 0 1-.3.2-.3.3-.6.3-1v-5c0-.4 0-.7-.4-1-.2-.2-.5-.3-.9-.3h-19.7c-2.1 0-4-.8-5.4-2.3a7.5 7.5 0 0 1-2.3-5.5v-5c0-2.2.7-4 2.3-5.5a7.5 7.5 0 0 1 5.4-2.2h19.7c2.2 0 4 .7 5.5 2.2a7.3 7.3 0 0 1 2.3 5.5Zm13.6-7.8h19.7c2.2 0 4 .8 5.5 2.3a7.5 7.5 0 0 1 2.3 5.4v19.2c0 2.1-.8 4-2.3 5.4a7.5 7.5 0 0 1-5.5 2.3h-19.7c-2.2 0-4-.7-5.5-2.3a7.5 7.5 0 0 1-2.2-5.4V308c0-2.1.7-4 2.2-5.4a7.5 7.5 0 0 1 5.5-2.3Zm19.7 6.4h-19.7c-.4 0-.6.2-1 .4-.2.3-.3.6-.3 1v19c0 .5.1.7.4 1 .3.3.5.4 1 .4h19.6c.4 0 .7-.1 1-.4.2-.3.3-.5.3-1v-19c0-.4 0-.7-.4-1-.2-.2-.5-.4-.9-.4Zm58.2-6.4c2.2 0 4 .8 5.5 2.3a7.5 7.5 0 0 1 2.3 5.4v27H610v-27c0-.3-.1-.6-.4-.9-.3-.2-.6-.4-1-.4H595c-.4 0-.7.2-1 .4-.2.3-.3.6-.3 1V335h-6.5v-26.9c0-.3 0-.6-.3-.9-.3-.2-.6-.4-1-.4h-13.7c-.3 0-.6.2-.9.4-.3.3-.4.6-.4 1V335h-6.4v-34.6h44.1Zm41.4 0c2.2 0 4 .8 5.5 2.3a7.5 7.5 0 0 1 2.3 5.4V321H629v6.4c0 .4.1.6.4.9.3.3.6.4 1 .4h27.4v6.4h-27.5c-2.1 0-4-.7-5.4-2.3a7.5 7.5 0 0 1-2.3-5.4V308c0-2.1.7-4 2.3-5.4a7.5 7.5 0 0 1 5.4-2.3H650Zm-21 14h22.3v-6.3c0-.3 0-.6-.3-.9-.3-.2-.6-.4-1-.4h-19.7c-.3 0-.6.2-.9.4-.3.3-.4.6-.4 1v6.3Z" fill="url(#d)"/></g><g filter="url(#e)"><path d="m379.5 379.5 9 16.8h-16.8L364 382h-7.3v14.3h-15.4v-50.7h28.1c11.7 0 19 6.5 19 18.1 0 7.5-3.4 13-9 15.8Zm-22.8-20.7v10h11c3.1 0 5.2-2 5.2-5 0-3.2-2-5-5.3-5h-11Zm80.8 41.2-46-12.5 12.3-46 23 6.2 23 6.2-12.3 46.1Zm-8.7-34-12.9-3.5-3.4 12.9 12.8 3.5 3.5-12.8Zm73.8 16c0 9.7-6.2 14.3-15.8 14.3h-30.2v-50.7h29.2c9.6 0 15.8 5 15.8 13.7 0 5.5-2 9.1-5.9 11.6 4.4 2 7 5.8 7 11Zm-31-24.2v7.5h10c2.8 0 4.4-1.2 4.4-3.9 0-2.4-1.6-3.6-4.3-3.6h-10Zm0 26.3H483c2.6 0 4.1-1.4 4.1-3.8 0-2.7-1.5-3.9-4.1-3.9h-11.3v7.7Zm38.6-38.5h15.4v35.7h22v15h-37.4v-50.7Zm94.1 25.3a26.3 26.3 0 1 1-52.6 0 26.3 26.3 0 0 1 52.6 0Zm-15.4 0a11 11 0 0 0-11-11.2c-5.9 0-10.9 5-10.9 11.2a11 11 0 0 0 11 11.3c6 0 11-5 11-11.3Zm52.5-.8 16.6 26.2h-18.3l-9.2-15-9.4 15h-18.6l17.3-25.6-15.9-25h18.3l8.5 13.6 8-13.7H657l-15.6 24.5Z" fill="url(#f)"/></g><defs><linearGradient id="b" x1="578.1" y1="264.3" x2="550" y2="87.8" gradientUnits="userSpaceOnUse"><stop offset=".1" stop-color="#8FA0B2"/><stop offset=".3" stop-color="#9BA9B6"/><stop offset=".7" stop-color="#D9DFE5"/><stop offset=".8" stop-color="#fff"/></linearGradient><linearGradient id="d" x1="578.2" y1="335.1" x2="576.9" y2="296.9" gradientUnits="userSpaceOnUse"><stop offset=".1" stop-color="#8FA0B2"/><stop offset=".3" stop-color="#9BA9B6"/><stop offset=".7" stop-color="#D9DFE5"/><stop offset=".8" stop-color="#fff"/></linearGradient><linearGradient id="f" x1="578.4" y1="400.1" x2="574.8" y2="335.7" gradientUnits="userSpaceOnUse"><stop offset=".1" stop-color="#8FA0B2"/><stop offset=".3" stop-color="#9BA9B6"/><stop offset=".7" stop-color="#D9DFE5"/><stop offset=".8" stop-color="#fff"/></linearGradient><filter id="a" x="337" y="100" width="324.7" height="172.1" filterUnits="userSpaceOnUse" color-interpolation-filters="sRGB"><feFlood flood-opacity="0" result="BackgroundImageFix"/><feColorMatrix in="SourceAlpha" values="0 0 0 0 0 0 0 0 0 0 0 0 0 0 0 0 0 0 127 0" result="hardAlpha"/><feOffset dy="4"/><feGaussianBlur stdDeviation="2"/><feComposite in2="hardAlpha" operator="out"/><feColorMatrix values="0 0 0 0 0 0 0 0 0 0 0 0 0 0 0 0 0 0 0.25 0"/><feBlend in2="BackgroundImageFix" result="effect1_dropShadow_26_54"/><feBlend in="SourceGraphic" in2="effect1_dropShadow_26_54" result="shape"/><feColorMatrix in="SourceAlpha" values="0 0 0 0 0 0 0 0 0 0 0 0 0 0 0 0 0 0 127 0" result="hardAlpha"/><feOffset dx="2" dy="4"/><feGaussianBlur stdDeviation="2"/><feComposite in2="hardAlpha" operator="arithmetic" k2="-1" k3="1"/><feColorMatrix values="0 0 0 0 1 0 0 0 0 1 0 0 0 0 1 0 0 0 0.5 0"/><feBlend in2="shape" result="effect2_innerShadow_26_54"/></filter><filter id="c" x="337" y="300.4" width="324.8" height="42.7" filterUnits="userSpaceOnUse" color-interpolation-filters="sRGB"><feFlood flood-opacity="0" result="BackgroundImageFix"/><feColorMatrix in="SourceAlpha" values="0 0 0 0 0 0 0 0 0 0 0 0 0 0 0 0 0 0 127 0" result="hardAlpha"/><feOffset dy="4"/><feGaussianBlur stdDeviation="2"/><feComposite in2="hardAlpha" operator="out"/><feColorMatrix values="0 0 0 0 0 0 0 0 0 0 0 0 0 0 0 0 0 0 0.25 0"/><feBlend in2="BackgroundImageFix" result="effect1_dropShadow_26_54"/><feBlend in="SourceGraphic" in2="effect1_dropShadow_26_54" result="shape"/><feColorMatrix in="SourceAlpha" values="0 0 0 0 0 0 0 0 0 0 0 0 0 0 0 0 0 0 127 0" result="hardAlpha"/><feOffset dx="2" dy="4"/><feGaussianBlur stdDeviation="2"/><feComposite in2="hardAlpha" operator="arithmetic" k2="-1" k3="1"/><feColorMatrix values="0 0 0 0 1 0 0 0 0 1 0 0 0 0 1 0 0 0 0.5 0"/><feBlend in2="shape" result="effect2_innerShadow_26_54"/></filter><filter id="e" x="337.3" y="341.5" width="324.7" height="66.5" filterUnits="userSpaceOnUse" color-interpolation-filters="sRGB"><feFlood flood-opacity="0" result="BackgroundImageFix"/><feColorMatrix in="SourceAlpha" values="0 0 0 0 0 0 0 0 0 0 0 0 0 0 0 0 0 0 127 0" result="hardAlpha"/><feOffset dy="4"/><feGaussianBlur stdDeviation="2"/><feComposite in2="hardAlpha" operator="out"/><feColorMatrix values="0 0 0 0 0 0 0 0 0 0 0 0 0 0 0 0 0 0 0.25 0"/><feBlend in2="BackgroundImageFix" result="effect1_dropShadow_26_54"/><feBlend in="SourceGraphic" in2="effect1_dropShadow_26_54" result="shape"/><feColorMatrix in="SourceAlpha" values="0 0 0 0 0 0 0 0 0 0 0 0 0 0 0 0 0 0 127 0" result="hardAlpha"/><feOffset dx="2" dy="4"/><feGaussianBlur stdDeviation="2"/><feComposite in2="hardAlpha" operator="arithmetic" k2="-1" k3="1"/><feColorMatrix values="0 0 0 0 1 0 0 0 0 1 0 0 0 0 1 0 0 0 0.5 0"/><feBlend in2="shape" result="effect2_innerShadow_26_54"/></filter></defs></svg>